Coordinates
version=1
nRows=23
nColumns=38
inDegrees=no

Units are S.I. units (second, meters, Newtons, ...)
If the header above contains a line with 'inDegrees', this indicates whether rotational values are in degrees (yes) or radians (no).

endheader
time	pelvis_tilt	pelvis_list	pelvis_rotation	pelvis_tx	pelvis_ty	pelvis_tz	hip_flexion_r	hip_adduction_r	hip_rotation_r	knee_angle_r	ankle_angle_r	subtalar_angle_r	mtp_angle_r	hip_flexion_l	hip_adduction_l	hip_rotation_l	knee_angle_l	ankle_angle_l	subtalar_angle_l	mtp_angle_l	lumbar_extension	lumbar_bending	lumbar_rotation	arm_flex_r	arm_add_r	arm_rot_r	elbow_flex_r	pro_sup_r	wrist_flex_r	wrist_dev_r	arm_flex_l	arm_add_l	arm_rot_l	elbow_flex_l	pro_sup_l	wrist_flex_l	wrist_dev_l
3.26	1.19877	1.43357	-2.96311	0.999752	-0.201261	0.945236	0.139207	-0.23064	0.389244	0.998126	-0.102901	0	0	0.277616	0.0135853	-0.0552128	0.378326	0.0131716	0	0	0.0213659	-0.111924	-0.0317947	-0.774758	-0.0842058	-0.310237	1.28885	1.5708	0	0	-0.391588	-0.206921	0.133145	0.790201	0.971638	0	0
3.27	1.17528	1.43204	-2.95071	1.00232	-0.206386	0.94713	0.166124	-0.221259	0.398456	1.0412	-0.137077	0	0	0.260907	0.0186911	-0.0597523	0.367019	0.0142383	0	0	0.0158985	-0.113831	-0.0313581	-0.762673	-0.0857158	-0.299102	1.23338	1.5708	0	0	-0.389579	-0.211216	0.124593	0.790065	0.978288	0	0
3.28	1.16015	1.43346	-2.94463	1.00507	-0.211506	0.948938	0.192508	-0.209703	0.403065	1.08064	-0.16395	0	0	0.246595	0.0216188	-0.0629173	0.355914	0.0144462	0	0	0.0129377	-0.114845	-0.0387092	-0.745609	-0.0933568	-0.280154	1.17348	1.5708	0	0	-0.393432	-0.212252	0.105793	0.79284	0.987294	0	0
3.29	1.14288	1.43651	-2.93345	1.00762	-0.216373	0.950894	0.216934	-0.195823	0.403648	1.11878	-0.173437	0	0	0.232405	0.0231684	-0.0627155	0.343256	0.01291	0	0	0.00908136	-0.112862	-0.0453262	-0.728408	-0.0951424	-0.268111	1.11254	1.5708	0	0	-0.393707	-0.214616	0.0919901	0.792424	0.995926	0	0
3.3	1.12613	1.44128	-2.9209	1.01013	-0.221102	0.952785	0.240378	-0.180355	0.400756	1.15511	-0.164407	0	0	0.219363	0.0231228	-0.0608053	0.33074	0.0109411	0	0	0.00558275	-0.109227	-0.0544732	-0.709812	-0.0973191	-0.254993	1.05079	1.5708	0	0	-0.394408	-0.217416	0.079931	0.791916	1.00332	0	0
3.31	1.11178	1.44721	-2.90828	1.01266	-0.22575	0.954542	0.262544	-0.164938	0.39339	1.1872	-0.145465	0	0	0.208018	0.0220424	-0.0581253	0.31922	0.00884188	0	0	0.00260589	-0.104506	-0.0658651	-0.691072	-0.0992079	-0.241807	0.989476	1.5708	0	0	-0.395219	-0.221073	0.0699688	0.792014	1.00665	0	0
3.32	1.09756	1.45354	-2.8941	1.0152	-0.230345	0.956176	0.283223	-0.150505	0.382535	1.21409	-0.123565	0	0	0.197427	0.020472	-0.0553662	0.308158	0.00669684	0	0	-0.000519792	-0.0994271	-0.077651	-0.670625	-0.0883579	-0.255564	0.92678	1.5708	0	0	-0.395329	-0.225469	0.0608282	0.793116	1.00849	0	0
3.33	1.0824	1.45943	-2.87865	1.01769	-0.234843	0.957704	0.302705	-0.137771	0.369757	1.23598	-0.102688	0	0	0.186704	0.0190663	-0.0531807	0.296762	0.00450536	0	0	-0.00361039	-0.0946658	-0.0890935	-0.652611	-0.0857378	-0.2523	0.868381	1.5708	0	0	-0.394956	-0.230242	0.052824	0.794186	1.00892	0	0
3.34	1.06578	1.46438	-2.86177	1.0201	-0.239285	0.95915	0.320958	-0.127072	0.355718	1.25304	-0.0875322	0	0	0.175596	0.0182208	-0.0518836	0.285101	0.00216903	0	0	-0.00707131	-0.090727	-0.0992691	-0.634423	-0.0816025	-0.252745	0.810714	1.5708	0	0	-0.393688	-0.235855	0.0473646	0.794991	1.00745	0	0
3.35	1.03995	1.46844	-2.83575	1.02244	-0.243669	0.960515	0.337153	-0.118408	0.340061	1.26536	-0.0764946	0	0	0.163015	0.0176846	-0.0510495	0.272699	8.52449e-05	0	0	-0.011268	-0.0870704	-0.110022	-0.622285	-0.0905097	-0.218785	0.765756	1.5708	0	0	-0.392863	-0.241582	0.042717	0.796187	1.00254	0	0
3.36	1.00993	1.47141	-2.80492	1.02462	-0.247949	0.961818	0.351507	-0.11209	0.322561	1.27298	-0.0679899	0	0	0.149932	0.0177396	-0.0499303	0.26013	-0.00207432	0	0	-0.0174931	-0.0828322	-0.114251	-0.603484	-0.067469	-0.268286	0.707399	1.5708	0	0	-0.385538	-0.250445	0.0478592	0.794245	0.995823	0	0
3.37	0.976048	1.47453	-2.77074	1.02683	-0.252254	0.962956	0.364806	-0.106786	0.304357	1.2762	-0.062821	0	0	0.137318	0.0172834	-0.0496129	0.248703	-0.00289089	0	0	-0.0225423	-0.0793551	-0.121613	-0.5889	-0.0610295	-0.276575	0.658748	1.5708	0	0	-0.382394	-0.25745	0.0479894	0.795311	0.985276	0	0
3.38	0.949329	1.47739	-2.74484	1.02894	-0.25646	0.963881	0.378615	-0.103182	0.285999	1.27615	-0.0601514	0	0	0.12649	0.0170394	-0.050535	0.239054	-0.00281706	0	0	-0.0265296	-0.0760026	-0.127385	-0.576559	-0.0549556	-0.284437	0.616146	1.5708	0	0	-0.378795	-0.263581	0.0458415	0.795661	0.982164	0	0
3.39	0.924446	1.48019	-2.72076	1.031	-0.26062	0.964674	0.39129	-0.101187	0.266118	1.27218	-0.0578956	0	0	0.116277	0.016906	-0.0503248	0.229725	-0.00233007	0	0	-0.0299783	-0.0727402	-0.133161	-0.565446	-0.0489044	-0.292432	0.576996	1.5708	0	0	-0.375386	-0.268725	0.041119	0.79542	0.985797	0	0
3.4	0.900589	1.48269	-2.6974	1.03297	-0.264788	0.965374	0.40225	-0.101267	0.24403	1.26401	-0.0540805	0	0	0.106727	0.0169353	-0.0490015	0.221617	-0.00156994	0	0	-0.032525	-0.0697764	-0.140491	-0.564841	-0.0608902	-0.233787	0.556529	1.5708	0	0	-0.373715	-0.272539	0.034077	0.79525	0.988278	0	0
3.41	0.886467	1.48537	-2.6844	1.03484	-0.268919	0.965976	0.412456	-0.102524	0.22155	1.2516	-0.0489477	0	0	0.098715	0.0168768	-0.0481091	0.21481	-0.00107129	0	0	-0.0348246	-0.0676858	-0.14443	-0.543357	-0.0367747	-0.308744	0.500168	1.5708	0	0	-0.370996	-0.277051	0.0297839	0.79592	0.986506	0	0
3.42	0.868002	1.48778	-2.66785	1.03657	-0.272916	0.966552	0.420836	-0.104437	0.19906	1.23578	-0.0421704	0	0	0.0907364	0.0165124	-0.0481358	0.208933	9.14496e-05	0	0	-0.0369871	-0.0650744	-0.148313	-0.533682	-0.0303952	-0.319829	0.46722	1.5708	0	0	-0.368459	-0.28079	0.025687	0.795604	0.982523	0	0
3.43	0.840713	1.48986	-2.64299	1.03816	-0.276874	0.967151	0.426781	-0.10698	0.176452	1.21697	-0.0335427	0	0	0.0812529	0.0160163	-0.0474779	0.201525	0.00183511	0	0	-0.0398304	-0.062294	-0.151642	-0.528807	-0.0270905	-0.31282	0.445361	1.5708	0	0	-0.366049	-0.283544	0.0198896	0.795338	0.979224	0	0
3.44	0.815037	1.49157	-2.62046	1.03966	-0.280767	0.967705	0.431652	-0.110703	0.153556	1.19531	-0.0240782	0	0	0.0716507	0.0157968	-0.046878	0.193924	0.00366244	0	0	-0.0426473	-0.0597412	-0.154067	-0.526643	-0.0249188	-0.29876	0.429513	1.5708	0	0	-0.363762	-0.285554	0.0135826	0.795239	0.977589	0	0
3.45	0.791849	1.49282	-2.60111	1.04104	-0.284579	0.968192	0.435268	-0.115628	0.129982	1.17103	-0.0154417	0	0	0.0622482	0.015904	-0.0467957	0.186768	0.00551358	0	0	-0.0449078	-0.0573962	-0.156735	-0.53907	-0.0382188	-0.211372	0.444296	1.5708	0	0	-0.362261	-0.286353	0.0050694	0.796302	0.976706	0	0
3.46	0.77409	1.49402	-2.58793	1.04228	-0.288322	0.968643	0.437942	-0.121275	0.105927	1.14426	-0.00763001	0	0	0.0536216	0.0161259	-0.047061	0.180277	0.00714677	0	0	-0.0470672	-0.0557877	-0.156905	-0.537908	-0.0341122	-0.199767	0.436818	1.5708	0	0	-0.360107	-0.287457	-0.0016273	0.798033	0.975182	0	0
3.47	0.743691	1.49462	-2.56345	1.04345	-0.292084	0.96881	0.438679	-0.127625	0.0814577	1.11668	0.000473915	0	0	0.0438549	0.0163708	-0.0487084	0.174299	0.0105633	0	0	-0.0561125	-0.0504418	-0.142896	-0.3862	-0.133118	-1.5708	0	0.747457	0	0	-0.346123	-0.291984	0.00791709	0.797785	0.973154	0	0
3.48	0.734523	1.49631	-2.5589	1.04424	-0.295625	0.969505	0.43844	-0.133152	0.0565022	1.08411	0.00541755	0	0	0.0360097	0.016332	-0.0467412	0.166769	0.00938142	0	0	-0.0513968	-0.0528665	-0.156668	-0.540146	-0.027427	-0.158289	0.437889	1.5708	0	0	-0.35745	-0.287705	-0.0183457	0.802369	0.974631	0	0
